<svg xmlns="http://www.w3.org/2000/svg" width="36" height="24" viewBox="0 0 36 24" role="img" aria-label="United Kingdom">
  <rect width="36" height="24" fill="#012169" />
  <path d="M0 0l14.6 9.7V0h6.8v9.7L36 0v4.7L24.2 12 36 19.3V24l-14.6-9.7V24h-6.8v-9.7L0 24v-4.7L11.8 12 0 4.7z" fill="#fff" />
  <path d="M0 0l16.5 11V0h3v11L36 0v2.4L21.5 12 36 21.6V24L19.5 13V24h-3V13L0 24v-2.4L14.5 12 0 2.4z" fill="#C8102E" />
  <path d="M14.2 0h7.6v24h-7.6zM0 8.2h36v7.6H0z" fill="#fff" />
  <path d="M15.4 0h5.2v24h-5.2zM0 9.4h36v5.2H0z" fill="#C8102E" />
</svg>
