<svg xmlns="http://www.w3.org/2000/svg" viewBox="0 0 301.99999 39.474468" height="39.474468" width="302"><path d="M301.00000166 1.00776317V7.8382638H286.7602947v30.06918026h-9.60031977V7.8382638h-14.23171588V1.00776316h38.0717426zM267.0265366 31.06937095v6.8380731h-30.50305736V1.00776318h9.59308977v30.06160778h20.9099676zM82.24254648 31.06937095v6.8380731H50.19454885V1.00776318H81.6375083v6.8343059H59.79524915v8.10903382h19.95864968v6.61736735H59.79524916v8.5009007h22.44729732zM32.9989069 24.20104593c4.10931284-2.23004138 6.647429-6.61751956 6.647429-11.22178407 0-3.8357899-1.11836932-6.81535564-3.46660244-8.77499442-2.72457448-2.2602933-6.4651565-3.19650427-12.77810212-3.19650427H1.39194026L.9999973 3.23007985s.39194296.66592253.84857556 1.4612243c.68114362 1.17582894.62406455 1.5221467.62406455 2.3060707v30.9100692h9.6045056V26.09218984h11.92952653l6.40046687 11.81525423h10.5672393l-7.9754688-13.70639813zm-4.85210184-5.9896117c-.73784217.7192344-1.61724044 1.0693194-2.9757224 1.0693194H12.07714298v-11.248421h10.34272826c3.07846475 0 4.7223421.34627973 5.82967613 1.24809105 1.08830768.8677161 1.61343516 2.19564173 1.61343516 4.14782218 0 2.0244806-.54034857 3.6453741-1.7161775 4.78318838zM122.43382538 1.00019068v24.47938847c-2.2374997-2.81978238-4.58877705-5.53667022-8.56186115-9.9052362-3.23448088-3.546399-9.96981166-10.8296889-13.43260884-14.56657978h-9.26583642l-.3881377 2.22231668s.39574825.66592253.84857557 1.4612243c.51371167.87909386.616454 1.2938304.6316751 1.76952742v31.4466125l8.62655076-.0266369V13.43566613c1.7199828 2.2945788 4.78703172 5.82206558 6.83046258 8.03680978 4.07164064 4.40262316 10.2209596 11.27113844 15.0079913 16.43481593h8.2878816V1.00761095l-8.58088752-.00761054zM216.42022925 1.00776317v22.5653749c0 2.51524648-.50610113 4.0145235-1.7313986 5.16367748-1.5567366 1.44212184-4.12110916 2.13471933-7.82744372 2.13471933-3.75960837 0-6.3924758-.6925975-7.9374161-2.13471933-1.22567798-1.14915398-1.7317791-2.6521982-1.7317791-5.1636775V1.00776318h-10.68139745l-.3923235 2.22231668s.39993404.66592253.84515082 1.4612243c.48707477.84861363.6008524 1.25962102.62444507 1.71998278v17.50813085c0 9.64632552 6.53745666 14.5550498 19.14051628 14.5550498h.266369c12.61447545 0 18.80565238-4.7718106 18.80565238-14.5550498V1.00776318h-9.3876051zM166.22869652 1.00776317h-11.99421617c-3.63783967 7.5116062-9.96600638 21.37421072-15.88700903 36.90363838h9.63114248c.76866487-2.10050994 1.582993-4.24675924 2.4011264-6.39285633h19.6998912c.8295492 2.1460971 1.64007207 4.2923464 2.4053122 6.39285633h9.6383725c-5.9286132-15.52942766-12.25716044-29.3920322-15.89461958-36.90363838zm-13.0901344 23.55470746c2.5228951-6.28634677 5.05340072-12.23398632 7.0930263-16.84597553 2.0396256 4.6119892 4.57774178 10.55962876 7.0968316 16.84597553h-14.1898579z" fill="#1d1b19"/></svg>